# xmcd
#
# Track frame offsets: 
#        182
#        15942
#        33485
#
# Disc length: 731 seconds
#
# Revision: 0
# Processed by: cddbd v1.5.1PL0 Copyright (c) Steve Scherf et al.
# Submitted via: ExactAudioCopy v0.95a5
#
DISCID=1502d903
DTITLE=Psyched Up Janis - I Died In My Teens (3-track)
DYEAR=1996
DGENRE=Grunge
TTITLE0=I Died In My Teens
TTITLE1=Shoot The Breeze
TTITLE2=Dense High
EXTD=
EXTT0=
EXTT1=
EXTT2=
PLAYORDER=
